<?xml version="1.0" encoding="UTF-8"?>
<svg id="Layer_2" xmlns="http://www.w3.org/2000/svg" viewBox="0 0 628 806.53">
  <defs>
    <style>
      .cls-1 {
        fill: #00053f;
      }
    </style>
  </defs>
  <g id="Layer_1-2" data-name="Layer_1">
    <g>
      <path className="fill=[#00053f]" d="M148.72,240.46c8.55-4,17.52-6.78,26.73-8.85,29.49-10.19,60.69-13.51,91.61-15.3,6.5-2.17-2.13-14.41-3.27-19.26-3.31-7.45-5.17-15.25-7.17-23.07-2.07-7.66,10.93-2.92,14.95-3.46,6.04.5,12.07.83,17.85,2.52,24,6.14,44.48,21.63,60.61,39.88,8.27,12.69,15.02,10.59,27.28,15.72,10.88,5.27,22.71,9,33.85,13.59,16.28,7.75,32.16,16.55,46.67,27.11,22.48,15.6,33.32,24.7,46.77,49.1,7.21,10.81,20.53,14.82,31.8,20.04,17.76,8.19,36.34,14.57,53.97,23.01,9.84,3.9,20.61,5.39,29.64,11.24,4.91,2.77,6.5,8.95,6.96,14.28-.34,13.67-3.51,27.1-8.81,39.67-2.38,5.82-3.89,12.1-7.32,17.21-3.04,4.42-5.83,8.98-9.82,12.62-3.77,3.73-7.85,6.87-9.23,12.34-1.17,3.93-1.04,8.1-2.69,11.77-3.47,7.59-7.79,15.56-14.07,21.1-1.95.99-1.74-2.72-1.54-4.17.87-5.67,1.27-11.46.42-17.14-1.04-5.28-4.56-9.19-8-12.78-6.91-7.69-17.5-9.35-26.95-12.3-4.77-1.5-9.63-.52-14.58-.41-16.06-.4-33.88,3.32-43.96,16.89-4.13,5.7-8.68,12.18-8.08,19.53.66,11.31,10.08,19.86,19.66,24.91,8.18,5.27,16.31,10.66,24.41,16.11,4.06,3.26,9.17,4.42,13.96,2.16,6.65-2.49,12.8-5.65,17.9-10.6,1.21-.87,2.53-2.83,3.96-1.61,11.72,32.01-2.68,74.06-36.4,97.67-23.74,16.42-8.24-1.28-20.47-16.1-6.61-7.46-14.23-14.15-21.56-20.9-4.57-3.17-8.77-6.58-13.81-8.93-7.17-2.68-14.25-5.85-21.6-8-5.96-1.17-12.12-1-18.17-1.3-7.05-.21-6.97,3.33-3.57,8.42,5.53,8.53,11.76,17.41,15.02,27.23,3.06,10.62,8.66,20.33,9.74,31.35,1.18,12.5.24,25.39.5,37.97-3.07,29.73-15.3,58.56-35.57,80.64-8.19,8.77-14.99,16.26-24.41,23.46-3.65,2.27-7.63,7.24-11.97,6.96-2.45-1.62,1.56-6.71,2.26-8.94,6.7-13.84,11.01-28.61,10.69-44.26.52-3.94-1.11-32.43-6.55-32.19-1.23.2-1.96,3.55-2.25,5.19-1.91,10.03-3.49,20.15-6.31,30-6.07,25.8-25.45,50.57-43.51,68.23-4.11,2.97-10.35,11.71-14.03,5.68-6.34-8.96-12.06-18.54-18.71-27.25-5.15-5.52-10.92-11.55-16.83-16.51-44.15-30.71-94.93-56.38-123.1-104.28-3.81-7.36-6.09-15.38-10.06-22.71-10.9-22.73-14.5-47.78-13.9-72.77,1.04-12.75,4.47-25.47,6.48-38.1.27-1.97,3.34-12.31-1.64-7-2.57,4.78-4.7,9.72-7.33,14.79-4.58,10.62-10.82,20.59-14.27,31.59-2.71,13.55-6.18,27.06-7.19,40.85.14,21.4,3.12,42.97,8.92,63.6,1.2,9.88-11.37-4.85-13.63-6.64-5.96-5.84-12.36-11.66-17.88-17.63-18.6-20.13-34.7-42.83-42.48-69.53-3.22-10.36-7.06-20.56-9.85-31.04-1.43-7.58-2.27-15.26-3.44-22.88-1.23-15.62.96-31.39,1.21-47.05.62-8.91,3.79-17.46,4.77-26.29.38-2.89,1.06-5.72,2.12-8.44,4.34-11.02,8.58-22.09,13.2-33,6.94-17.2,18.5-31.85,29.26-46.66.4-.88-.18-.87-1.47-.09-6.79,4.71-13.52,9.76-20.34,14.49-11.58,8.64-20.24,20.43-28.65,31.93-5.11,7.31-9.04,14.95-14.14,22.34-1.96,2.32-6.86,15.43-8.59,14.85-1.22-22.7,4.59-45.59,12.63-66.77,2.36-7.81,4.84-14.75,8.99-21.81,26.96-50.18,71.69-90.2,124.23-111.92l.18-.08ZM351.5,425.65c-4.31-4.72-10.54-7.79-15.57-11.65-7.88-4.67-17.65-5.11-26.64-4.52-2.75.2-5.13,1.64-7.71,2.27-2.28.45-5.13.55-7.49,1.64-3.88,1.42-7.06,5.11-9.8,6.95-1.66,1.1-3.01,2.39-4.36,3.89-2.63,2.72-5.35,4.99-7.21,7.98-2.01,2.45-4.75,5.05-6.19,8.18-5.13,11.49-4.52,24.87-.52,36.64.57,1.69,1.24,3.34,2.03,4.94,3.14,5.87,6.1,11.95,10.76,16.78,1.32,1.41,2.92,2.53,4.38,3.55,3.89,2.53,3.7,7.88,3.79,12.03-2.39,24.63-9.58,48.5-15.24,72.51-1.55,5.5,2.53,6.55,7.22,6.47,24.33.07,48.69.07,73.02-.04,2.29.02,5.45-.24,6.8-2.03.87-1.1.82-2.8.49-4.22-1.9-8.26-4.12-16.65-5.37-25.08-3.73-17.08-7.63-34.22-11.43-51.32-.29-1.28-.67-2.93-.35-4.01.23-.94.89-1.61,1.75-2.26,2.32-1.75,4.77-3.71,6.84-5.75,5.93-6.29,11.15-14.28,13.75-22.68,1.04-2.73,2.23-5.09,2.3-7.94.1-9.62.58-19.63-3.56-28.43-1.08-2.04-2.8-3.66-4.32-5.31-2.57-2.8-4.78-6.15-7.26-8.5l-.11-.11ZM464.33,346.72c2.99,1.99,5.69,3.52,8.32.46,5.82-4.74,8.36-15.58,1.67-20.46-3.9-2.87-8.92-.2-13.31-1.43-2.8-.29-5.04-1.58-7.83-2.13-6.55-.72-13.21-1.06-19.78-1.58-1.36-.11-3.9.21-3.15,1.97.76,1.38,2.46,1.96,3.74,2.82,2.78,1.81,5.6,3.7,8.5,5.59,7.28,4.61,14.52,10.07,21.69,14.66l.15.09Z"/>
      <path className="fill=[#00053f]" d="M515.46,305.02c-9.74-11.09-19.3-22.52-29.97-32.72-4.15-3.8-8.77-7.15-13.3-10.52-5.6-4.01-9.53-6.49-8.21-14.03,1.77-16.29.47-32.88.83-49.27.03-3.42-.07-6.8-.69-10.16-2.4-11.57-4.18-23.35-7.34-34.72-4.36-9.07-8.45-18.35-13.4-27.05-7.24-11.72-15.77-22.34-26.23-31.45-7.59-6.36-16.35-11.51-24.55-17.03-3.45-1.95-6.15-4.48-9.59-6.33-2.78-1.37-5.75-2.38-8.64-3.55-24.2-9.52-50.96-13.01-76.55-8.06-8.24,2.51-16.17,4.32-24.38,7.61-3.19,1.1-6.25,2.53-9.15,4.26-10.72,6.31-21.63,12.21-31.52,19.88-12.28,9.66-22.66,21.68-31.16,34.76-2.66,4.38-4.86,8.9-7.78,13.11-3.04,4.85-4.18,10.7-5.89,16.15-2.54,8.4-4.5,16.99-5.59,25.75-.82,7.65-1.01,15.36-1.38,23.16-.06,1.39-.3,2.93-.97,4.04-1.18,2.15-3.81,3.17-5.95,4.16-3.11,1.32-6.43,2.55-9.73,3.75-10.06,3.33-20.28,6.49-29.45,11.88-3.61,1.66-7.82,6.17-11.37,3.74-1.22-1.2-1.36-3.67-1.29-5.5.74-25.24-.39-50.95,6.82-75.43,1.61-5.59,3.1-11.21,4.19-16.89,2.94-7.66,5.89-16.08,9.23-23.5,7.21-13.94,15.33-27.7,25.3-39.92,23.38-26.87,53.15-49.34,86.92-61.13,10.89-3.68,22.26-5.13,33.6-6.61,26.05-3.92,52.55-3.63,78.35,2.14,33.26,6.15,65.24,20.49,90.29,43.57,6.19,5.65,11.6,12,17.46,17.7,8.29,9.45,15.56,19.77,21.88,30.6,3.42,6.02,7.13,13.06,10.05,19.61,1.31,3.39,1.58,7.21,2.9,10.84,2.02,5.9,4.1,11.8,6.73,17.49.93,2.12,1.63,4.34,1.84,6.64.71,15.35,3.43,30.67,4.04,46.05.03,31.9-.01,63.89.03,95.77-.04,4.53,1.12,20.21-6.25,11.37l-.12-.15Z"/>
      <path className="fill=[#00053f]" d="M18.44,364.05c-.7,3.89-2.44,8.37-3.81,12.21-7.01,18.54-11.59,37.69-12.05,57.58.12,1.46-1.41,12.7,1.51,7.38,2.4-4.59,4.65-9.36,7.14-13.89.7-1.2,1.55-2.59,2.43-3.6.3-.33.48-.44.51-.3-.97,3.06-2.85,6.02-4.17,9.02-2.43,4.99-4.87,10.02-7.32,15.05-.48.84-.99,2.34-1.83,2.59-3.93-19.53,6.31-65.14,17.57-86.08v.02Z"/>
      <path className="fill=[#00053f]" d="M378.75,8.06c-.1.16-.97.13-2.15-.1-6.23-1.28-12.6-2.67-18.9-3.81-28.58-5.67-57.63-2.7-86.12,1.9-3.52.5-.82-.19.89-.63,6.36-1.67,12.65-3.48,19.19-3.96,22.79-1.42,45.93-3.12,68.38,1.92,5.07,1.06,10.16,2.22,15.22,3.3.93.2,3.32.87,3.5,1.35v.03Z"/>
      <path className="fill=[#00053f]" d="M127.27,556.18c.22,23.78,1.69,47.76,11.01,70.07,2.95,7.65,7.06,14.87,10.01,22.48.43,1.32.58,2.32.32,2.38-13.97-21.73-21.01-48.13-21.63-74.03-.15-6.11-.13-12.29-.17-18.39-.02-.65.18-2.86.43-2.54l.02.03Z"/>
      <path className="fill=[#00053f]" d="M522.34,273.25c-.46-.52-.6-2.46-.56-3.49,0-23.99,0-47.98,0-71.97-.02-1.01.17-3.34.9-3.47.69.04.94,2.5.9,3.46-.07,24.2.14,48.45-.15,72.61.02.77-.3,3.41-1.05,2.91l-.05-.05Z"/>
      <path className="fill=[#00053f]" d="M268.76,216.84c-26.92,1.3-53.84,4.28-80.07,11.25-2.24.36-2.55-.17-.39-.96,25.24-7.14,51.03-11.34,77.31-10.96.88.03,3.21.13,3.18.64l-.03.03Z"/>
      <path className="fill=[#00053f]" d="M382.95,729.19c.89,17.3-6.61,33.72-14.13,49.01-.39.84-.69,1.43-.74,2.17-.05,1.44,1.86,1.69,1.19,2.73-.72,1.01-2.18,1.75-3.59,2.79-.95.66-3.72,2.67-3.99,2.07-.17-.21.02-.78.44-1.56.93-1.69,2-3.35,2.98-5.04,8.88-15.05,14.66-31.18,16.81-48.53.2-1.02.42-3.31,1.01-3.65h.03Z"/>
      <path className="fill=[#00053f]" d="M295.97,60.63c21.02-5.33,45.98-2.84,66.65,3.93,2.05.99,1.41,1.66-.64,1.3-19.97-5.86-40.33-8.28-60.94-4.85-1.15.15-2.37.34-3.41.31-1.22-.02-1.93-.29-1.7-.64l.04-.05Z"/>
      <path className="fill=[#00053f]" d="M104.41,622.29c-.54-7.54-1.48-15.69-.52-23.25,2.23-14.4,4.71-29.16,8.78-43.2.83-1.81,1.43-1.99,1.01.03-2.59,11.55-5.7,23.04-7.7,34.7-1.59,10.39-1.43,21.3-1.56,31.72h0Z"/>
      <path className="fill=[#00053f]" d="M127.19,556.43c-.56.01-.32-1.74-.29-2.38,1.59-11.24,3.41-22.48,4.91-33.48.16-2.02-.64-2.87.01-4.65.58-1.48,2.36-3.48,3.78-3.23,1.77.56-.78,6.92-.83,8.62-2,9.89-3.96,19.96-5.95,29.89-.39,1.57-.64,4.05-1.58,5.21l-.05.03Z"/>
      <path className="fill=[#00053f]" d="M175.15,212.9c-.03-.66,2.18-1.23,3.37-2.28,1.32-.99,1.77-2.59,1.83-4.21.64-13.01.9-25.84,4.27-38.41.63-2.69.24.65.15,1.52-1.09,9.31-1.85,18.67-1.78,28.08-.03,2.64-.02,5.22-.11,7.87-.09,1.8-.16,4.3-1.23,5.62-1.23,1.54-4.43,2.01-5.98,2.01-.24-.02-.41-.07-.48-.15l-.03-.04Z"/>
      <path className="fill=[#00053f]" d="M452.55,145.72c2.48,2.82,4.17,6.97,5,10.7,2.5,11.22,5.11,22.52,7.09,33.82.03,1.96-.82,1.84-1.29-.01-1.25-14.41-4.91-28.33-10.11-41.9-.22-.68-.87-2.31-.71-2.61h.02Z"/>
      <path className="fill=[#00053f]" d="M28.27,542.16c.45.42.99,1.81,1.27,2.63,4.6,14.13,9.66,28.38,14.11,42.47-7.36-13.17-11.85-27.97-15.46-42.55-.12-.7-.59-2.71.03-2.59l.05.04Z"/>
      <path className="fill=[#00053f]" d="M26.54,468.38c.28.46.29,2.08.24,2.91-.63,13.45-1.24,26.92-1.88,40.36-.06.75-.2,2.5-.63,2.67-.35-.23-.36-1.95-.35-2.67.63-13.58,1.25-27.21,1.9-40.78.07-.68.22-2.58.68-2.52l.03.03Z"/>
      <path className="fill=[#00053f]" d="M522.67,273.65c2.07-2.13,1.27,2.95,1.42,4.42-.05,8.36.1,27.55-.05,32.75-.35,1.27-1.88.82-2.98.13-2.16-1.71.29-4.19.54-6.34.71-9.27.19-18.69.32-28-.02-.96.21-2.21.69-2.86l.07-.1Z"/>
      <path className="fill=[#00053f]" d="M283.9,171.92c-7.24-.48-14.8-1.26-22-1.76-3.22-.17-7.58-.92-6.11,3.89,1.23,4.62,2.48,9.17,3.67,13.65.12.72.63,2.18.2,2.63-.63-.41-1.04-1.8-1.37-2.61-1.74-5.09-3.51-10.28-5.42-15.91-1.11-2.99-.42-4.31,2.92-3.75,9.58,1.33,18.93,2.49,28.12,3.85h0Z"/>
      <path className="fill=[#00053f]" d="M523.03,194.64c-.9.62-1.41-1.62-1.52-2.46-1.1-12.74-3.1-25.79-3.59-38.53,2.12,8.72,3.78,18.1,5.05,27.05.41,3.6.49,7.25.6,10.87.04.94,0,2.41-.48,3l-.06.07Z"/>
      <path className="fill=[#00053f]" d="M366.07,736.57c.87-4.51,2.62-9.33,3.55-13.92,1.83-8.26,3.22-16.62,4.79-24.94.31-1.24.57-3.55,1.32-4.31.37.21.23,1.78.22,2.45-.78,14.04-3.66,28.1-9.86,40.72h-.02Z"/>
      <path className="fill=[#00053f]" d="M122.85,183.74c.33.73.43,2.28.38,3.29-.44,13-.88,26.73-1.34,40.49-.02,1.29-.09,2.68.24,3.9.46,1.78,2.41,2.83,2.31,3.58,0,.55-1.34,1.2-2.63,1.24-1.75.19-2.36-1.48-2.21-3.02.76-16.35,1.49-31.92,2.21-47.38,0-.77.31-3.22.99-2.19l.04.09Z"/>
      <path className="fill=[#00053f]" d="M113.76,671.27c-1.89-10.52-6.2-20.72-7.16-31.4-.02-.6.05-.76.2-.44,2.1,6.86,3.87,14.2,5.94,21.04,1.41,4.88,2.97,9.49,4.54,14.35.16.65.7,2.02.08,2.23-.52.09-2.12-1.28-2.74-2.53-.51-.95-.68-1.99-.83-3.05l-.03-.19Z"/>
      <path className="fill=[#00053f]" d="M527,454.64c3.17-1.01,7.21-.8,10.46.17,6.75,1.89,13.43,4.17,20.07,6.45,1.19.4,2.54.98,3.46,1.7.65.49.98.92.86,1.11-.3.38-1.7-.29-2.3-.56-10.25-5.01-21.48-7.24-32.57-8.85v-.02Z"/>
      <path className="fill=[#00053f]" d="M570.18,472.33c3.86,2.66,4.26,8.33,4.31,12.66.21,4.64-.24,9.18-1.15,13.76-.52,2.4.41,5.07-.95,7.24-.75,1.15-4.04,4.62-3.25,1.39,3.48-11.36,5.52-22.28,1.48-32.8-.19-.62-.78-1.93-.49-2.24l.04-.02Z"/>
      <path className="fill=[#00053f]" d="M623.79,412.07c-.14-.61-.06-1.86.07-2.66,1.03-6.47,2.45-12.95,3.21-19.47.49-4.85-.98-9.65-3.2-13.88-.82-1.59-.55-1.23.27-.05,2.41,3.28,4.28,6.61,3.78,10.65-.53,7.91-1.93,15.86-3.16,23.76-.1.57-.57,2.52-.94,1.74l-.02-.08Z"/>
      <path className="fill=[#00053f]" d="M463.22,191.25c.35.12.39,2.03.42,2.73-.05,17.32.21,34.71-.01,52.02-.19,1.85-.6,1.79-.75-.03.13-18.14-.49-36.63.32-54.69l.02-.02Z"/>
      <path className="fill=[#00053f]" d="M407.98,241.29c-10.99-3.24-21.69-8-32.2-12.63-1.12-.5-1.27-.58-.09-.13,10.68,4.23,21.66,8.45,32.29,12.75h0Z"/>
      <path className="fill=[#00053f]" d="M442.12,670.55c-.29-.48-.35-1.85-.36-2.64.01-10.08.03-20.22.05-30.29.04-.63-.07-2.01.3-2.16,1.05,1.6,1.17,4.57,1.25,6.64-.05,8.46-.35,16.94-.57,25.41-.02.73-.1,1.66-.22,2.28-.12.63-.28.93-.42.8l-.03-.04Z"/>
      <path className="fill=[#00053f]" d="M624.31,411.24c.18-.03.24.31.14.91-.11.71-.42,1.69-.74,2.44-3.5,8.31-7.01,16.69-10.51,24.97-.46,1.08-.52,1.14-.1,0,3.23-8.6,6.6-17.46,9.91-26.19.25-.67.81-1.91,1.24-2.12h.05Z"/>
      <path className="fill=[#00053f]" d="M184.81,165.56c1.61-7.02,4.03-14.23,6.22-21.15,1.08-3.02,2.76-6.53,5.15-8.61.19.29-.33,1.45-.5,2-3,7.99-6.01,16.05-9.05,24.04-.49,1.11-1.08,2.99-1.8,3.75h-.02Z"/>
      <path className="fill=[#00053f]" d="M437.67,565.49c.55-.29,1.79.11,2.51.41,7.15,2.9,14.36,5.8,21.48,8.79,1.67.48,6.51,4.1,1.64,2.38-7.61-2.99-15.27-6.02-22.9-9.03-.89-.37-3.4-1.52-2.8-2.5l.06-.04Z"/>
      <path className="fill=[#00053f]" d="M517.21,148.37c-3.26-6.09-5.42-13.01-7.73-19.54-.91-3.03-2.56-6.66-2.23-9.77.31.14.65,1.35.86,1.89,2.97,9.07,6.31,18.32,9.12,27.4h-.01Z"/>
      <path className="fill=[#00053f]" d="M24.07,514.39c.13-.12.32.13.53.69.22.58.43,1.5.54,2.22,1.19,7.57,2.42,15.19,3.59,22.74.41,4.29-.9,1.62-1.14-.62-1.19-7.58-2.4-15.19-3.57-22.75-.09-.67-.19-1.84.03-2.25l.03-.04Z"/>
      <path className="fill=[#00053f]" d="M606.95,367.32c-8.73-2.83-18.36-5.03-26.09-10.07,8.61,3.07,17.54,6.72,26.1,10.07h0Z"/>
      <path className="fill=[#00053f]" d="M132.59,134.2c.64.97,0,3.12-.25,4.38-1.94,6.98-3.95,14.01-5.98,20.95-.74,2.33-1.77,2.99-1.09-.06,2.1-7.76,4.29-15.6,6.42-23.36.19-.6.45-1.73.86-1.9h.04Z"/>
      <path className="fill=[#00053f]" d="M440.07,623.29c-3.74-8.77-6.85-18.14-9.96-27.3-.32-.95-.31-.98.04-.02,3.26,9.01,6.7,18.29,9.92,27.32h0Z"/>
      <path className="fill=[#00053f]" d="M260.03,190.15c.62.03,1.28,1.83,1.62,2.5,2.87,7.15,6.34,14.19,8.81,21.44.21,1.1-.09,1.44-.76.37-3.28-7.25-6.09-14.85-9.19-22.21-.23-.6-.6-1.62-.5-2.07l.02-.04Z"/>
      <path className="fill=[#00053f]" d="M495.9,604.93c4.66,6.21,6.08,10.68,5.43,18.54-.03.79-.03,1.72.23,2.41.38,1.14,1.61,1.68,2.07,2.05.42.28.09.62-.25.83-.94.46-5.99,3.67-5.42.45,2.63-8.37,2.21-16.79-2.07-24.27h0Z"/>
      <path className="fill=[#00053f]" d="M363.61,65.29c-.7-1.53,1.96-.71,2.7-.35,5.72,2.36,11.51,4.65,17.15,7.17,1.4.38,6.7,4.72,2.17,2.97-6.55-2.71-13.17-5.45-19.73-8.17-.8-.33-1.78-.88-2.23-1.51l-.07-.1Z"/>
      <path className="fill=[#00053f]" d="M128.92,231.67c6.47-4.54,13.88-7.94,21.27-10.76,3.93-1.51-.22,1.51-1.43,2-6.52,3-13.24,6.08-19.83,8.78h0Z"/>
      <path className="fill=[#00053f]" d="M567.97,352.29c-7.72-3.25-15.66-6.6-23.39-9.85q-.87-.37,0,0c7.73,3.25,15.67,6.6,23.39,9.85h0Z"/>
      <path className="fill=[#00053f]" d="M26.3,468.59c-.18.13-.27-.14-.25-.72.01-.58.15-1.41.3-2.06,1.91-8,3.6-16.24,5.65-24.17-.28,6.52-2.18,13.22-3.59,19.68-.67,2.31-.87,5.19-2.06,7.23l-.05.04Z"/>
      <path className="fill=[#00053f]" d="M187,227.68c.09.56-1.51,1.1-2.06,1.35-6.53,2.41-13.35,4.87-20.25,5.83,6.62-2.46,13.69-4.61,20.42-6.93.54-.17,1.47-.42,1.85-.28l.05.03Z"/>
      <path className="fill=[#00053f]" d="M125.42,161.32c.67-.09.4,1.83.34,2.37-.9,5.92-1.8,11.77-2.71,17.06-.12,1.37-1.38,4.43-1.09.87.88-6.08,1.82-12.22,2.72-18.32.09-.62.33-1.62.68-1.94l.06-.04Z"/>
      <path className="fill=[#00053f]" d="M436.92,694.62c1.65-7.31,3.36-14.88,5.01-22.19-1.65,7.3-3.36,14.87-5.01,22.19h0Z"/>
      <path className="fill=[#00053f]" d="M426.05,250.21c-5.99-2.97-12.18-6.04-18.16-9,5.98,2.96,12.17,6.03,18.16,9h0Z"/>
      <path className="fill=[#00053f]" d="M438,565.91c.74,1.14-1.72,1.32-2.51,1.27-6.82-.27-13.68-.56-20.49-.84-3.63-.09-1.01-1.48.92-1.77,6.47-.42,13.07.44,19.57.63.8.03,1.95.19,2.44.65l.08.08Z"/>
      <path className="fill=[#00053f]" d="M140.72,114.29c-2.37,5.86-4.43,12.11-7.11,17.81-.46.64-.75.55-.57-.28,2.33-5.87,5.14-11.75,7.67-17.53h0Z"/>
      <path className="fill=[#00053f]" d="M590.55,476.24c-1.06-4.11,2.34-13.82,5.5-15.23.26.19-.04.92-.15,1.29-1.82,4.55-3.22,9.56-5.3,13.94h-.04Z"/>
      <path className="fill=[#00053f]" d="M268.29,69.66c5.78-2.04,11.79-4.17,17.57-6.21-5.78,2.04-11.79,4.17-17.57,6.21h0Z"/>
      <path className="fill=[#00053f]" d="M83.51,644.51c2.94,2.97,6.07,6.13,9.02,9.1-2.95-2.98-6.06-6.12-9.02-9.1h0Z"/>
      <path className="fill=[#00053f]" d="M505.06,114.27c-2.02-3.97-4.13-8.08-6.15-12.05,2.02,3.96,4.12,8.08,6.15,12.05h0Z"/>
      <path className="fill=[#00053f]" d="M139.7,245.07c-4,2-8.16,4.07-12.16,6.06,4-1.99,8.15-4.06,12.16-6.06h0Z"/>
      <path className="fill=[#00053f]" d="M368.26,226.38c-3.76-1.02-7.99-2.83-11.37-4.09,3.76,1.11,7.71,2.34,11.49,3.48.73.18,1.56.69.08.63l-.19-.02Z"/>
      <path className="fill=[#00053f]" d="M346.02,209.24c-1.96-1.96-4.08-4.08-6.06-6.06,1.94,1.94,4.12,4.13,6.06,6.06h0Z"/>
      <path className="fill=[#00053f]" d="M46.59,593.39c1.64,2.96,3.4,6.15,5.04,9.12-1.65-2.98-3.39-6.13-5.04-9.12h0Z"/>
      <path className="fill=[#00053f]" d="M428.93,593.35c-1.64-2.94-3.41-6.12-5.06-9.07,1.65,2.96,3.41,6.1,5.06,9.07h0Z"/>
      <path className="fill=[#00053f]" d="M494.98,95.32c-1.65-2.61-3.44-5.43-5.11-8.05,1.67,2.63,3.43,5.42,5.11,8.05h0Z"/>
      <path className="fill=[#00053f]" d="M298.03,176.23c-3.31-.98-6.86-2.03-10.17-3.02,3.32.99,6.84,2.03,10.17,3.02h0Z"/>
      <path className="fill=[#00053f]" d="M313.06,183.2c-2.62-1.32-5.47-2.77-8.1-4.1,2.65,1.34,5.45,2.76,8.1,4.1h0Z"/>
      <path className="fill=[#00053f]" d="M148.73,241.02c-2.96,1.34-6.15,2.79-9.15,4.15,2.95-1.34,6.2-2.81,9.15-4.15h0Z"/>
      <path className="fill=[#00053f]" d="M149.73,97.19c-1.31,2.28-2.73,4.75-4.05,7.06,1.3-2.26,2.76-4.81,4.05-7.06h0Z"/>
      <path className="fill=[#00053f]" d="M575.82,355.21c-2.59-.72-5.28-2.08-7.85-3.05,2.36.74,4.9,1.61,7.27,2.41.25.1.75.38.65.61l-.07.04Z"/>
      <path className="fill=[#00053f]" d="M15.91,419.59c1.32-2.29,2.76-4.76,4.1-7.07-1.31,2.26-2.79,4.82-4.1,7.07h0Z"/>
      <path className="fill=[#00053f]" d="M622.03,374.24c-2.49-1.43-5.22-3-7.72-4.44,2.52,1.45,5.19,2.98,7.72,4.44h0Z"/>
      <path className="fill=[#00053f]" d="M27.63,347.1c-1.3,2.31-2.71,4.81-4.02,7.14,1.28-2.28,2.74-4.86,4.02-7.14h0Z"/>
      <path className="fill=[#00053f]" d="M435.03,255.22c-2.31-1.3-4.82-2.7-7.15-4.01,2.29,1.28,4.87,2.73,7.15,4.01h0Z"/>
      <path className="fill=[#00053f]" d="M445.53,130.43c1.32,2.61,2.77,5.46,4.1,8.08-1.34-2.64-2.75-5.43-4.1-8.08h0Z"/>
      <path className="fill=[#00053f]" d="M449.55,138.42c.99,2.29,2.08,4.78,3.08,7.09-.98-2.26-2.1-4.84-3.08-7.09h0Z"/>
      <path className="fill=[#00053f]" d="M320.77,188.21c-1.97-1.08-3.92-2.72-5.83-4.01,1.76,1.05,3.76,2.26,5.5,3.39.18.17.49.41.4.61l-.07.02Z"/>
      <path className="fill=[#00053f]" d="M473.05,281.2c-1.62-1.29-3.78-3.01-5.44-4.32,1.76,1.4,3.65,2.9,5.44,4.32h0Z"/>
      <path className="fill=[#00053f]" d="M31.04,340.94c-1.1,1.98-2.39,4.27-3.49,6.25,1.13-2.03,2.34-4.19,3.49-6.25h0Z"/>
      <path className="fill=[#00053f]" d="M24.44,405.8c1-1.55,2.43-3.76,3.46-5.36-.97,1.51-2.43,3.77-3.46,5.36h0Z"/>
      <path className="fill=[#00053f]" d="M441.93,259.31c-1.52-.91-3.51-2.12-5.06-3.05,1.6.96,3.44,2.07,5.06,3.05h0Z"/>
      <path className="fill=[#00053f]" d="M465.58,577.45c1.52.92,3.52,2.12,5.07,3.05-1.6-.96-3.45-2.07-5.07-3.05h0Z"/>
      <path className="fill=[#00053f]" d="M356.92,222.32c-1.17-1.48-2.81-3.56-4.01-5.09,1.24,1.57,2.75,3.49,4.01,5.09h0Z"/>
      <path className="fill=[#00053f]" d="M439.5,120.46c.96,1.5,2.21,3.47,3.18,4.99-1-1.58-2.17-3.4-3.18-4.99h0Z"/>
      <path className="fill=[#00053f]" d="M51.55,602.42c.93,1.53,2.14,3.53,3.08,5.08-.97-1.6-2.1-3.46-3.08-5.08h0Z"/>
      <path className="fill=[#00053f]" d="M198.9,130.59c.92-1.54,2.12-3.57,3.06-5.15-.96,1.62-2.08,3.5-3.06,5.15h0Z"/>
      <path className="fill=[#00053f]" d="M461.01,272.24c-1.22-.9-2.86-2.1-4.1-3.02,1.08.8,2.99,2.2,4.1,3.02h0Z"/>
      <path className="fill=[#00053f]" d="M575.68,355.02c-.11-.75,1.09.18,1.46.31,1.2.65,2.53,1.31,3.68,1.96-1.46-.61-3.59-1.39-5.06-2.16l-.08-.11Z"/>
      <path className="fill=[#00053f]" d="M428.52,106.5c1.01,1.26,2.38,2.98,3.41,4.28-.99-1.24-2.38-2.99-3.41-4.28h0Z"/>
      <path className="fill=[#00053f]" d="M609.86,445.55c.92-1.53,2.12-3.53,3.05-5.09-.96,1.61-2.08,3.46-3.05,5.09h0Z"/>
      <path className="fill=[#00053f]" d="M154.7,89.16c-.95,1.51-2.21,3.49-3.18,5.02,1-1.58,2.16-3.42,3.18-5.02h0Z"/>
      <path className="fill=[#00053f]" d="M371.51,780.89c1.31-1,3.08-2.37,4.42-3.4-1.28.98-3.09,2.37-4.42,3.4h0Z"/>
      <path className="fill=[#00053f]" d="M481.95,76.3c-.97-1.29-2.3-3.05-3.29-4.37.95,1.26,2.3,3.05,3.29,4.37h0Z"/>
      <path className="fill=[#00053f]" d="M441.65,634.37c-.22-1.75-.55-4.31-.79-6.11.22,1.7.55,4.3.79,6.11h0Z"/>
      <path className="fill=[#00053f]" d="M442.63,125.37c.89,1.55,2.07,3.58,2.98,5.16-.94-1.63-2.03-3.51-2.98-5.16h0Z"/>
      <path className="fill=[#00053f]" d="M523.51,265.37c.02-2.07.05-4.82.07-6.94-.02,2.25-.05,4.65-.07,6.94h0Z"/>
      <path className="fill=[#00053f]" d="M54.57,607.42c.72,1.26,1.71,3,2.45,4.3-.63-1.11-1.8-3.15-2.45-4.3h0Z"/>
      <path className="fill=[#00053f]" d="M48.72,316.19c-.92,1.2-2.16,2.81-3.09,4.03.82-1.06,2.25-2.94,3.09-4.03h0Z"/>
      <path className="fill=[#00053f]" d="M113.88,554.57c.69-1.53,1.62-3.57,2.33-5.13-.73,1.61-1.59,3.49-2.33,5.13h0Z"/>
      <path className="fill=[#00053f]" d="M164.29,234.77c-1.3.49-3.13,1.19-4.46,1.7,1.15-.44,3.27-1.25,4.46-1.7h0Z"/>
      <path className="fill=[#00053f]" d="M303,178.25c-1.51-.62-3.56-1.47-5.09-2.1,1.47.61,3.56,1.47,5.09,2.1h0Z"/>
      <path className="fill=[#00053f]" d="M489.92,87.33c-.88-1.23-2.07-2.9-2.97-4.15.78,1.1,2.16,3.03,2.97,4.15h0Z"/>
      <path className="fill=[#00053f]" d="M196.23,135.76c.83-1.58,1.92-3.66,2.76-5.27-.87,1.66-1.88,3.58-2.76,5.27h0Z"/>
      <path className="fill=[#00053f]" d="M127.68,525.37c.63-1.13,1.55-2.77,2.21-3.94-.57,1.02-1.61,2.87-2.21,3.94h0Z"/>
      <path className="fill=[#00053f]" d="M484.97,80.29c-.91-1.2-2.15-2.83-3.08-4.05.81,1.07,2.24,2.96,3.08,4.05h0Z"/>
      <path className="fill=[#00053f]" d="M498.99,102.31c-.9-1.55-2.09-3.59-3-5.17.95,1.63,2.04,3.52,3,5.17h0Z"/>
      <path className="fill=[#00053f]" d="M462.97,247.1c1.09-1.3.72,1.29.77,1.9-.03,1.89,0,3.88-.07,5.74-.28-2.25-.76-5.13-.76-7.49l.06-.14Z"/>
      <path className="fill=[#00053f]" d="M104.34,664.79c1.01.85,2.23,1.88,3.27,2.76-.98-.83-2.29-1.94-3.27-2.76h0Z"/>
      <path className="fill=[#00053f]" d="M73.56,633.46c.84,1.02,1.84,2.25,2.7,3.3-.81-.99-1.9-2.32-2.7-3.3h0Z"/>
      <path className="fill=[#00053f]" d="M123.76,253.18c-1.57.89-3.62,2.05-5.22,2.95,1.65-.93,3.55-2.01,5.22-2.95h0Z"/>
      <path className="fill=[#00053f]" d="M507.88,624.64c1.11-.67,2.71-1.63,3.85-2.31-.99.6-2.81,1.69-3.85,2.31h0Z"/>
      <path className="fill=[#00053f]" d="M42.67,324.14c-.9,1.21-2.12,2.85-3.03,4.09.8-1.08,2.21-2.98,3.03-4.09h0Z"/>
      <path className="fill=[#00053f]" d="M504.22,626.92c1.08-.68,2.65-1.67,3.76-2.37-.97.61-2.74,1.73-3.76,2.37h0Z"/>
      <path className="fill=[#00053f]" d="M507.34,118.97c-.7-1.41-1.66-3.36-2.37-4.8.64,1.29,1.72,3.48,2.37,4.8h0Z"/>
      <path className="fill=[#00053f]" d="M142.61,110.08c-.6,1.2-1.45,2.9-2.07,4.13.53-1.07,1.52-3.03,2.07-4.13h0Z"/>
      <path className="fill=[#00053f]" d="M379.86,774.56c1.02-.72,2.28-1.61,3.34-2.35-.99.7-2.36,1.66-3.34,2.35h0Z"/>
      <path className="fill=[#00053f]" d="M352.96,217.28c-.8-1.05-1.77-2.31-2.6-3.39.78,1.02,1.82,2.38,2.6,3.39h0Z"/>
      <path className="fill=[#00053f]" d="M477.02,70.25c-.84-1.04-1.85-2.31-2.71-3.38.82,1.02,1.9,2.37,2.71,3.38h0Z"/>
      <path className="fill=[#00053f]" d="M22.65,356.12c-.59,1.18-1.46,2.89-2.07,4.1.53-1.06,1.51-2.99,2.07-4.1h0Z"/>
      <path className="fill=[#00053f]" d="M21.83,409.51c.76-1.08,1.68-2.39,2.47-3.5-.74,1.05-1.73,2.46-2.47,3.5h0Z"/>
      <path className="fill=[#00053f]" d="M614.15,369.82c-1.24-.51-2.98-1.24-4.25-1.76,1.1.46,3.12,1.29,4.25,1.76h0Z"/>
      <path className="fill=[#00053f]" d="M596.52,460.86c1.01-1.01,2.4-2.39,3.43-3.42-.89.88-2.52,2.51-3.43,3.42h0Z"/>
      <path className="fill=[#00053f]" d="M331.01,195.23c-1.22-.94-2.87-2.21-4.12-3.16,1.09.83,3,2.31,4.12,3.16h0Z"/>
      <path className="fill=[#00053f]" d="M470.59,580.45c.81.54,2.21,1.47,3,1.99-.78-.52-2.18-1.45-3-1.99h0Z"/>
      <path className="fill=[#00053f]" d="M334.25,197.65c-1.02-.77-2.27-1.71-3.32-2.51.99.74,2.34,1.77,3.32,2.51h0Z"/>
      <path className="fill=[#00053f]" d="M476.22,283.5c-1-.73-2.23-1.64-3.27-2.4.97.71,2.3,1.69,3.27,2.4h0Z"/>
      <path className="fill=[#00053f]" d="M289.76,62.53c1.55-.27,3.69-.63,5.28-.91-1.42.24-3.82.66-5.28.91h0Z"/>
      <path className="fill=[#00053f]" d="M35.66,334.13c-.73,1.02-1.62,2.27-2.37,3.32.71-.99,1.67-2.34,2.37-3.32h0Z"/>
      <path className="fill=[#00053f]" d="M325.95,191.33c-.84-.58-2.23-1.54-3.05-2.11.82.57,2.2,1.52,3.05,2.11h0Z"/>
      <path className="fill=[#00053f]" d="M400.84,755.54c.88-.92,2.16-2.26,3.07-3.2-.79.83-2.24,2.34-3.07,3.2h0Z"/>
      <path className="fill=[#00053f]" d="M440.97,628.37c-.29-1.52-.7-3.64-1-5.2.27,1.4.73,3.77,1,5.2h0Z"/>
      <path className="fill=[#00053f]" d="M32.92,337.97c-.44.7-1.24,1.98-1.66,2.64.42-.67,1.22-1.94,1.66-2.64h0Z"/>
      <path className="fill=[#00053f]" d="M59.24,614.94c.52.76,1.42,2.08,1.93,2.81-.5-.74-1.4-2.05-1.93-2.81h0Z"/>
      <path className="fill=[#00053f]" d="M57.24,612.04c.49.72,1.38,2.02,1.85,2.72-.47-.69-1.36-2-1.85-2.72h0Z"/>
      <path className="fill=[#00053f]" d="M466.22,275.9c-.7-.54-1.97-1.52-2.64-2.04.67.52,1.94,1.5,2.64,2.04h0Z"/>
      <path className="fill=[#00053f]" d="M110.75,670.4c.3-.1,1.05-.04,1.45-.08.45.04,1.16-.16,1.5.12.21.2.13.72.15,1.14.02,2.01-.92.96-1.79.14-.44-.43-.96-.8-1.33-1.26l.02-.06Z"/>
      <path className="fill=[#00053f]" d="M433.57,112.44c.6.83,1.58,2.19,2.16,3-.58-.81-1.56-2.16-2.16-3h0Z"/>
      <path className="fill=[#00053f]" d="M445.01,261.23c-.87-.55-2.3-1.44-3.14-1.97.84.53,2.27,1.42,3.14,1.97h0Z"/>
      <path className="fill=[#00053f]" d="M383.59,771.86c.67-.56,1.9-1.57,2.54-2.11-.64.53-1.87,1.55-2.54,2.11h0Z"/>
      <path className="fill=[#00053f]" d="M285.77,63.52c1.27-.33,2.8-.74,4.1-1.08-1.23.32-2.88.76-4.1,1.08h0Z"/>
      <path className="fill=[#00053f]" d="M472.17,64.56c-.64-.33-1.82-.72-2.36-1.21-.14-.3-.09-.8.05-1.11.71.47,1.68,1.68,2.32,2.3v.02Z"/>
      <path className="fill=[#00053f]" d="M607.79,447.33c.56-.55,1.49-1.43,2.1-1.91-.36.7-1.16,1.8-1.63,2.56-.64,1.14-.49.15-.53-.53l.05-.12Z"/>
      <path className="fill=[#00053f]" d="M424.26,102.14c.66.65,1.8,1.76,2.44,2.39-.64-.63-1.78-1.74-2.44-2.39h0Z"/>
      <path className="fill=[#00053f]" d="M151.61,94.08c-.54.89-1.42,2.33-1.94,3.19.52-.86,1.4-2.3,1.94-3.19h0Z"/>
      <path className="fill=[#00053f]" d="M454.01,267.24c-.85-.59-2.24-1.55-3.07-2.13.82.57,2.21,1.53,3.07,2.13h0Z"/>
      <path className="fill=[#00053f]" d="M64.25,622.05c.56.7,1.59,1.97,2.13,2.64-.54-.67-1.57-1.94-2.14-2.64h0Z"/>
      <path className="fill=[#00053f]" d="M517.96,153.35c-.09-1.08-.24-2.87-.33-3.93.09,1.06.24,2.84.33,3.93h0Z"/>
      <path className="fill=[#00053f]" d="M604.8,452.55c.65-.82,1.71-2.15,2.34-2.94-.63.79-1.69,2.12-2.34,2.94h0Z"/>
      <path className="fill=[#00053f]" d="M423.91,584.35c-.55-.88-1.44-2.31-1.98-3.17.53.85,1.43,2.28,1.98,3.17h0Z"/>
      <path className="fill=[#00053f]" d="M422.03,581.29c-.57-.87-1.51-2.28-2.07-3.12.56.84,1.49,2.25,2.07,3.12h0Z"/>
      <path className="fill=[#00053f]" d="M456.97,269.28c-.85-.59-2.23-1.56-3.06-2.13.82.57,2.2,1.54,3.06,2.13h0Z"/>
      <path className="fill=[#00053f]" d="M451.04,265.2c-.86-.58-2.26-1.53-3.1-2.09.83.56,2.23,1.51,3.1,2.09h0Z"/>
      <path className="fill=[#00053f]" d="M448.04,263.2c-.87-.57-2.29-1.5-3.13-2.05.84.55,2.26,1.48,3.13,2.05h0Z"/>
      <path className="fill=[#00053f]" d="M515.58,304.41c.5.68,1.22,1.66,1.69,2.31-.48-.66-1.2-1.63-1.69-2.31h0Z"/>
      <path className="fill=[#00053f]" d="M436.53,116.41c.44.69,1.09,1.7,1.51,2.36-.43-.67-1.07-1.67-1.51-2.36h0Z"/>
      <path className="fill=[#00053f]" d="M68.59,627.44c.52.67,1.27,1.65,1.76,2.3-.5-.65-1.25-1.62-1.76-2.3h0Z"/>
      <path className="fill=[#00053f]" d="M77.24,637.92c.67.7,1.82,1.91,2.46,2.59-.64-.68-1.79-1.88-2.46-2.59h0Z"/>
      <path className="fill=[#00053f]" d="M92.48,653.56c.65.48,1.63,1.21,2.25,1.66-.72-.53-1.54-1.14-2.25-1.66h0Z"/>
      <path className="fill=[#00053f]" d="M37.66,331.14c-.58.86-1.53,2.26-2.09,3.09.56-.83,1.51-2.23,2.09-3.09h0Z"/>
      <path className="fill=[#00053f]" d="M19.92,412.6c.54-.88,1.44-2.32,1.97-3.17-.53.85-1.42,2.29-1.97,3.17h0Z"/>
      <path className="fill=[#00053f]" d="M376.79,693.28c.35.67.88,1.68,1.21,2.31-.34-.64-.86-1.65-1.21-2.31h0Z"/>
      <path className="fill=[#00053f]" d="M44.1,321.91c-.43.66-1.09,1.67-1.5,2.3.48-.74,1.02-1.58,1.5-2.3h0Z"/>
      <path className="fill=[#00053f]" d="M375.87,777.55c.67-.44,1.7-1.11,2.34-1.53-.75.49-1.6,1.05-2.34,1.53h0Z"/>
      <path className="fill=[#00053f]" d="M367.71,226.32c1.3-.53,3.12.17,4.38.62-1.13-.1-3.21-.4-4.38-.59v-.03Z"/>
      <path className="fill=[#00053f]" d="M350.28,213.79c-.45-.51-1.18-1.34-1.6-1.83.42.47,1.19,1.35,1.6,1.83h0Z"/>
      <path className="fill=[#00053f]" d="M374.95,228.29c-.76-.38-2.12-1.06-2.84-1.41.72.36,2.08,1.04,2.84,1.41h0Z"/>
      <path className="fill=[#00053f]" d="M389.6,76.45c.59.32,1.32.71,1.93,1.04-.46-.25-1.44-.77-1.93-1.04h0Z"/>
      <path className="fill=[#00053f]" d="M320.66,188.13c.02-.06,0-.41.1-.41.63.35,1.56,1.12,2.13,1.54-.57-.25-1.61-.79-2.18-1.06l-.05-.07Z"/>
      <path className="fill=[#00053f]" d="M108.59,668.45c.62.59,1.52,1.45,2.11,2.01-.6-.57-1.49-1.42-2.11-2.01h0Z"/>
      <path className="fill=[#00053f]" d="M544.01,342.23c-.83-.27-2.36-.78-3.16-1.04.8.26,2.32.77,3.16,1.04h0Z"/>
      <path className="fill=[#00053f]" d="M168.79,214.53c.82-.28,2.31-.8,3.09-1.07-.78.27-2.27.79-3.09,1.07h0Z"/>
      <path className="fill=[#00053f]" d="M435.95,697.62c.29-.83.82-2.34,1.1-3.14-.28.79-.81,2.31-1.1,3.14h0Z"/>
      <path className="fill=[#00053f]" d="M286.77,173.36c-.79-.27-2.15-.79-2.87-1.14.58-.01,1.66.18,2.33.22.61-.02.71.36.61.88l-.07.04Z"/>
      <path className="fill=[#00053f]" d="M274.26,759.86c.69.52,1.7,1.28,2.36,1.78-.76-.57-1.61-1.21-2.36-1.78h0Z"/>
      <path className="fill=[#00053f]" d="M279.57,764.39c.62.61,1.53,1.5,2.12,2.08-.69-.67-1.45-1.42-2.12-2.08h0Z"/>
      <path className="fill=[#00053f]" d="M52.08,311.88c-.47.64-1.18,1.62-1.63,2.23.52-.72,1.12-1.53,1.63-2.23h0Z"/>
      <path className="fill=[#00053f]" d="M171.79,213.54c.82-.29,2.31-.81,3.09-1.08-.78.27-2.27.8-3.09,1.08h0Z"/>
      <path className="fill=[#00053f]" d="M540.95,341.28c-.59-.38-1.54-1-2.09-1.36.54.35,1.54,1,2.09,1.36h0Z"/>
      <path className="fill=[#00053f]" d="M434.85,700.61c.32-.82.91-2.32,1.22-3.12-.31.79-.9,2.29-1.22,3.12h0Z"/>
      <path className="fill=[#00053f]" d="M387.63,75.42c.54.28,1.55.82,2.07,1.1-.52-.28-1.53-.81-2.07-1.1h0Z"/>
      <path className="fill=[#00053f]" d="M486.33,81.91c-.37-.44-1.07-1.28-1.43-1.7.36.43,1.05,1.26,1.43,1.7h0Z"/>
      <path className="fill=[#00053f]" d="M496.09,97.25c-.31-.53-.89-1.52-1.19-2.03.3.51.88,1.5,1.19,2.03h0Z"/>
      <path className="fill=[#00053f]" d="M419.6,97.44c.38.4.94,1,1.35,1.43-.3-.32-1.02-1.09-1.35-1.43h0Z"/>
      <path className="fill=[#00053f]" d="M145.71,104.19c-.29.54-.84,1.55-1.12,2.07.28-.52.83-1.53,1.12-2.07h0Z"/>
      <path className="fill=[#00053f]" d="M143.64,108.12c-.32.59-.84,1.55-1.14,2.09.3-.54.82-1.5,1.14-2.09h0Z"/>
      <path className="fill=[#00053f]" d="M432.28,111.17c.38.38.95.94,1.37,1.35-.31-.3-1.04-1.03-1.37-1.35h0Z"/>
      <path className="fill=[#00053f]" d="M438.23,119.02c.38.44.94,1.07,1.36,1.55-.33-.37-1.02-1.15-1.36-1.55h0Z"/>
      <path className="fill=[#00053f]" d="M132.94,132.32c.16.02.77-.04.85.05-.36.45-1.08.98-1.57,1.38.07-.29.5-1.06.63-1.38l.09-.06Z"/>
      <path className="fill=[#00053f]" d="M305.04,179.19c-.61-.29-1.6-.75-2.17-1.02.56.27,1.6.75,2.17,1.02h0Z"/>
      <path className="fill=[#00053f]" d="M314.96,184.28c-.53-.31-1.53-.89-2.04-1.19.51.3,1.51.88,2.04,1.19h0Z"/>
      <path className="fill=[#00053f]" d="M419.35,576.87c-.37-.44-1.06-1.27-1.42-1.69.36.42,1.05,1.25,1.42,1.69h0Z"/>
      <path className="fill=[#00053f]" d="M335.97,199.32c-.42-.41-1.03-1.02-1.49-1.47.36.35,1.11,1.1,1.49,1.47h0Z"/>
      <path className="fill=[#00053f]" d="M348.24,211.51c-.37-.36-.93-.9-1.33-1.3.3.29,1.01.99,1.33,1.3h0Z"/>
      <path className="fill=[#00053f]" d="M126.84,232.62c.61-.3,1.58-.79,2.16-1.08-.56.28-1.59.8-2.16,1.08h0Z"/>
      <path className="fill=[#00053f]" d="M124.88,233.66c.59-.32,1.55-.85,2.1-1.14-.55.3-1.51.82-2.1,1.14h0Z"/>
      <path className="fill=[#00053f]" d="M427.96,251.27c-.53-.3-1.54-.87-2.05-1.17.51.29,1.52.86,2.05,1.17h0Z"/>
      <path className="fill=[#00053f]" d="M43.6,587.39c.27.55.79,1.59,1.05,2.12-.26-.53-.78-1.57-1.05-2.12h0Z"/>
      <path className="fill=[#00053f]" d="M44.58,589.4c.28.55.8,1.58,1.07,2.11-.27-.53-.79-1.56-1.07-2.11h0Z"/>
      <path className="fill=[#00053f]" d="M127.66,251.01c-.59.33-1.54.87-2.09,1.18.54-.31,1.5-.85,2.09-1.18h0Z"/>
      <path className="fill=[#00053f]" d="M45.57,591.41c.28.54.82,1.56,1.1,2.09-.28-.52-.81-1.54-1.1-2.09h0Z"/>
      <path className="fill=[#00053f]" d="M125.69,252.08c-.53.31-1.53.88-2.05,1.18.51-.3,1.52-.87,2.05-1.18h0Z"/>
      <path className="fill=[#00053f]" d="M429.95,595.32c-.28-.54-.82-1.55-1.09-2.07.27.52.81,1.53,1.09,2.07h0Z"/>
      <path className="fill=[#00053f]" d="M436.93,256.3c-.52-.31-1.51-.88-2.02-1.18.51.3,1.49.87,2.02,1.18h0Z"/>
      <path className="fill=[#00053f]" d="M478.06,285.17c-.39-.36-.98-.9-1.4-1.3.32.29,1.07.99,1.4,1.3h0Z"/>
      <path className="fill=[#00053f]" d="M480.51,287.34c-.38-.39-.94-.97-1.35-1.39.3.31,1.03,1.06,1.35,1.39h0Z"/>
      <path className="fill=[#00053f]" d="M73.02,289.82c-.38.4-.94,1-1.35,1.44.3-.32,1.03-1.1,1.35-1.44h0Z"/>
      <path className="fill=[#00053f]" d="M63.75,299.16c-.42.39-1.03.96-1.49,1.38.36-.33,1.11-1.03,1.49-1.38h0Z"/>
      <path className="fill=[#00053f]" d="M61.22,617.86c.43.51.96,1.14,1.41,1.67-.34-.4-1.05-1.25-1.41-1.67h0Z"/>
      <path className="fill=[#00053f]" d="M517.33,306.78c.36.45,1.02,1.29,1.37,1.72-.34-.43-1.01-1.28-1.37-1.72h0Z"/>
      <path className="fill=[#00053f]" d="M45.68,320.16c-.4.43-.99,1.07-1.42,1.54.34-.37,1.06-1.15,1.42-1.54h0Z"/>
      <path className="fill=[#00053f]" d="M67.24,626.03c.4.41.98,1.02,1.41,1.48-.34-.36-1.05-1.1-1.41-1.48h0Z"/>
      <path className="fill=[#00053f]" d="M39.69,328.17c-.36.47-1.03,1.36-1.38,1.81.35-.46,1.02-1.34,1.38-1.81h0Z"/>
      <path className="fill=[#00053f]" d="M71.25,631.01c.4.41,1,1.01,1.44,1.46-.35-.35-1.07-1.09-1.44-1.46h0Z"/>
      <path className="fill=[#00053f]" d="M144.67,106.15c-.29.54-.85,1.56-1.13,2.09.28-.52.84-1.54,1.13-2.09h0Z"/>
      <path className="fill=[#00053f]" d="M23.67,354.16c-.29.54-.84,1.56-1.12,2.08.28-.52.83-1.54,1.12-2.08h0Z"/>
      <path className="fill=[#00053f]" d="M20.65,360.13c-.27.55-.79,1.59-1.06,2.12.26-.53.78-1.57,1.06-2.12h0Z"/>
      <path className="fill=[#00053f]" d="M19.66,362.15c-.27.55-.79,1.59-1.05,2.12.26-.53.78-1.57,1.05-2.12h0Z"/>
      <path className="fill=[#00053f]" d="M608.79,367.49c-.54-.08-1.34-.21-1.92-.3.43.07,1.46.23,1.92.3h0Z"/>
      <path className="fill=[#00053f]" d="M100.74,661.37c.38.42.93,1.03,1.34,1.49-.32-.36-1-1.11-1.34-1.49h0Z"/>
      <path className="fill=[#00053f]" d="M14.87,421.54c.29-.54.85-1.54,1.13-2.06-.28.52-.84,1.52-1.13,2.06h0Z"/>
      <path className="fill=[#00053f]" d="M441.8,670.31c.16.03.71-.06.84.06-.01.34-.63,1.73-.78,2.06-.09-.51-.06-1.53-.11-2.06l.06-.06Z"/>
      <path className="fill=[#00053f]" d="M607.8,447.3c0,.32.11.87.04,1.23-.14.3-.58.93-.75,1.12.13-.61.52-1.73.69-2.35h.02Z"/>
      <path className="fill=[#00053f]" d="M561.62,464.42c.51.34,1.46.97,1.95,1.3-.49-.33-1.44-.96-1.95-1.3h0Z"/>
      <path className="fill=[#00053f]" d="M378.27,696.15c.22,0,.67.02.99.03.28,0,.06.31-.04.54-.11.19-.22.58-.34.6-.19-.11-.47-.86-.64-1.11l.03-.05Z"/>
      <path className="fill=[#00053f]" d="M567.55,469.47c.34.41,1.33.77,1.27,1.42-.01.14.02.44-.05.43-.39-.44-.89-1.36-1.23-1.83h.01Z"/>
      <path className="fill=[#00053f]" d="M365.65,738.37c.09-.53.24-1.32.34-1.9-.08.43-.26,1.45-.34,1.9h0Z"/>
      <path className="fill=[#00053f]" d="M568.77,471.26c.02-.13,0-.71.04-.75.24.49.63,1.55.81,2.05-.18-.2-.63-.93-.82-1.2l-.03-.11Z"/>
      <path className="fill=[#00053f]" d="M281.63,766.41c.37.4.91,1,1.32,1.44-.3-.32-1-1.09-1.32-1.44h0Z"/>
      <path className="fill=[#00053f]" d="M460.96,53.34c-.28-.27-.75-.71-1.07-1.02.32.3.79.75,1.07,1.02h0Z"/>
      <path className="fill=[#00053f]" d="M289.27,774.22c.39.36.97.89,1.4,1.28-.31-.29-1.06-.98-1.4-1.28h0Z"/>
      <path className="fill=[#00053f]" d="M378.35,775.91c.45-.4,1.1-.98,1.59-1.42-.38.34-1.18,1.06-1.59,1.42h0Z"/>
      <path className="fill=[#00053f]" d="M129.84,521.51c.31-.52.91-1.51,1.21-2.01-.3.5-.9,1.49-1.21,2.01h0Z"/>
      <path className="fill=[#00053f]" d="M469.87,62.25c-.03.22-.03,1.03-.1,1.16-.26-.53-.69-1.64-.86-2.22.22.14.67.71.92.95l.04.1Z"/>
      <path className="fill=[#00053f]" d="M478.29,71.51c-.37-.38-.93-.94-1.34-1.35.3.3,1.02,1.02,1.34,1.35h0Z"/>
      <path className="fill=[#00053f]" d="M167.81,215.2c.37-.26.75-.52,1.12-.78-.37.26-.75.52-1.12.78Z"/>
      <path className="fill=[#00053f]" d="M417.18,573.96c-.26,0-.52.01-.78.02.12-.21.24-.42.36-.63.27.11.41.31.42.61Z"/>
      <path className="fill=[#00053f]" d="M418.01,575.28c-.23-.35-.62-.93-.88-1.32.26.39.65.97.88,1.32h0Z"/>
      <path className="fill=[#00053f]" d="M420.05,578.26c-.19-.35-.52-.94-.73-1.34.22.39.54.99.73,1.34h0Z"/>
      <path className="fill=[#00053f]" d="M346.97,210.29c-.28-.3-.74-.81-1.05-1.14.31.34.78.84,1.05,1.14h0Z"/>
      <path className="fill=[#00053f]" d="M340.03,203.25c-.29-.29-.79-.77-1.12-1.1.33.32.82.81,1.12,1.1h0Z"/>
      <path className="fill=[#00053f]" d="M49.69,315.12c-.27.3-.73.81-1.04,1.16.31-.34.77-.85,1.04-1.16h0Z"/>
      <path className="fill=[#00053f]" d="M50.57,314.01c-.26.32-.7.86-1,1.23.29-.36.74-.91,1-1.23h0Z"/>
      <path className="fill=[#00053f]" d="M339.03,202.26c-.24-.23-.93-.9-1.16-1.12.24.23.89.86,1.16,1.12h0Z"/>
      <path className="fill=[#00053f]" d="M286.74,173.34c0-.14,0-.47,0-.69,0-.25.3.03.52.18.18.15.58.36.59.46-.13.1-.77.06-1.04.1l-.06-.05Z"/>
      <path className="fill=[#00053f]" d="M427.52,105.41c.23.25.89.96,1.11,1.2-.23-.25-.85-.92-1.11-1.2h0Z"/>
      <path className="fill=[#00053f]" d="M423.4,101.22c.23-.04.45-.09.68-.13-.03.23-.06.46-.09.7-.24-.14-.44-.33-.59-.57Z"/>
      <path className="fill=[#00053f]" d="M422.4,100.21c.23-.04.45-.08.68-.12-.04.23-.07.45-.11.68-.23-.15-.42-.34-.57-.56Z"/>
      <path className="fill=[#00053f]" d="M421.39,99.21c.23-.04.46-.08.68-.12-.03.23-.07.46-.1.69-.24-.15-.43-.34-.58-.57Z"/>
      <path className="fill=[#00053f]" d="M418.52,96.45c.31.28.83.76,1.18,1.08-.35-.32-.87-.8-1.18-1.08h0Z"/>
      <path className="fill=[#00053f]" d="M495.58,603.39c.17.36.46.97.65,1.38-.19-.41-.48-1.02-.65-1.38h0Z"/>
      <path className="fill=[#00053f]" d="M74.72,288.33c.12.21.23.41.35.62-.21-.14-.41-.29-.62-.43,0,0,.27-.19.27-.19Z"/>
      <path className="fill=[#00053f]" d="M417.47,95.49c.25.23.96.89,1.19,1.1-.25-.23-.91-.85-1.19-1.1h0Z"/>
      <path className="fill=[#00053f]" d="M601.85,455.59c.24-.24.92-.93,1.14-1.16-.24.24-.88.89-1.14,1.16h0Z"/>
      <path className="fill=[#00053f]" d="M62.55,619.44c.24.34.64.91.9,1.29-.27-.38-.67-.95-.9-1.29h0Z"/>
      <path className="fill=[#00053f]" d="M63.37,620.68c.23.37.46.74.68,1.12-.23-.37-.46-.74-.68-1.12Z"/>
      <path className="fill=[#00053f]" d="M600.82,456.6c.24-.24.93-.92,1.16-1.14-.24.24-.89.88-1.16,1.14h0Z"/>
      <path className="fill=[#00053f]" d="M416.11,94.4c.44.35,1.09.86,1.57,1.25-.38-.3-1.17-.93-1.57-1.25h0Z"/>
      <path className="fill=[#00053f]" d="M155.42,87.92c-.21.35-.57.95-.81,1.34.24-.4.6-.99.81-1.34h0Z"/>
      <path className="fill=[#00053f]" d="M66.37,624.68c.24.37.47.74.71,1.12-.24-.37-.47-.74-.71-1.12Z"/>
      <path className="fill=[#00053f]" d="M38.39,329.92c-.21.35-.57.93-.81,1.31.24-.39.6-.97.81-1.31h0Z"/>
      <path className="fill=[#00053f]" d="M563.42,465.56c.26.21,1.01.81,1.25,1-.26-.21-.96-.77-1.25-1h0Z"/>
      <path className="fill=[#00053f]" d="M564.54,466.43c.24.23.94.89,1.17,1.11-.24-.23-.9-.85-1.17-1.11h0Z"/>
      <path className="fill=[#00053f]" d="M155.79,87.35c.12.21.25.42.37.63-.26-.01-.53-.02-.79-.04,0-.29.15-.49.42-.6Z"/>
      <path className="fill=[#00053f]" d="M566.56,468.4c.23.25.87.97,1.08,1.2-.22-.25-.83-.92-1.08-1.2h0Z"/>
      <path className="fill=[#00053f]" d="M70.35,629.73c.25.36.5.72.75,1.08-.25-.36-.5-.72-.75-1.08Z"/>
      <path className="fill=[#00053f]" d="M72.62,632.39c.27.31.73.82,1.04,1.16-.31-.34-.77-.86-1.04-1.16h0Z"/>
      <path className="fill=[#00053f]" d="M487.04,83.27c-.2-.35-.53-.94-.76-1.34.23.4.56.99.76,1.34h0Z"/>
      <path className="fill=[#00053f]" d="M52.69,311.34c.13.2.26.39.38.59-.22-.12-.43-.23-.65-.35,0,0,.27-.24.27-.24Z"/>
      <path className="fill=[#00053f]" d="M76.32,636.81c.29.35.59.69.88,1.04-.29-.35-.59-.69-.88-1.04Z"/>
      <path className="fill=[#00053f]" d="M474.27,66.82c-.26-.31-.51-.61-.77-.92.26.31.51.61.77.92Z"/>
      <path className="fill=[#00053f]" d="M473.2,65.6c-.2-.21-.4-.43-.6-.65.27.15.47.37.6.65Z"/>
      <path className="fill=[#00053f]" d="M81.52,642.41c.23.24.91.94,1.13,1.17-.23-.24-.87-.9-1.13-1.17h0Z"/>
      <path className="fill=[#00053f]" d="M82.52,643.46c.29.3.77.8,1.09,1.14-.32-.34-.81-.84-1.09-1.14h0Z"/>
      <path className="fill=[#00053f]" d="M468.98,61.31c-.29-.3-.78-.8-1.11-1.14.33.34.82.84,1.11,1.14h0Z"/>
      <path className="fill=[#00053f]" d="M295.8,60.39c-.02.26.07.81-.03,1.08-.12.24-.47.29-.72.23.04-.32.58-1.01.72-1.31h.03Z"/>
      <path className="fill=[#00053f]" d="M102.36,663.08c.29.26.57.51.85.77-.29-.26-.57-.51-.85-.77Z"/>
      <path className="fill=[#00053f]" d="M103.32,663.94c.36.29.71.58,1.07.87-.36-.29-.71-.58-1.07-.87Z"/>
      <path className="fill=[#00053f]" d="M107.53,667.46c.3.28.81.75,1.15,1.07-.34-.32-.85-.79-1.15-1.07h0Z"/>
      <path className="fill=[#00053f]" d="M61.86,301.08c.16.18.31.37.47.55-.2-.13-.39-.25-.59-.38,0,0,.12-.17.12-.17Z"/>
      <path className="fill=[#00053f]" d="M623.2,375.07c-.27-.2-1.05-.76-1.3-.94.27.19,1,.72,1.3.94h0Z"/>
      <path className="fill=[#00053f]" d="M468,60.3c-.3-.3-.8-.79-1.13-1.13.33.33.83.83,1.13,1.13h0Z"/>
      <path className="fill=[#00053f]" d="M68.74,294.18c-.24.23-.93.9-1.15,1.12.24-.23.89-.86,1.15-1.12h0Z"/>
      <path className="fill=[#00053f]" d="M467,59.3c-.3-.29-.8-.79-1.14-1.12.34.33.84.82,1.14,1.12h0Z"/>
      <path className="fill=[#00053f]" d="M465.99,58.31c-.29-.3-.79-.8-1.12-1.14.33.34.82.84,1.12,1.14h0Z"/>
      <path className="fill=[#00053f]" d="M465,57.3c-.24-.24-.93-.92-1.16-1.14.24.24.89.88,1.16,1.14h0Z"/>
      <path className="fill=[#00053f]" d="M69.75,293.16c-.23.24-.91.92-1.12,1.14.23-.24.86-.88,1.12-1.14h0Z"/>
      <path className="fill=[#00053f]" d="M71.75,291.19c-.3.29-.8.78-1.14,1.11.34-.33.84-.82,1.14-1.11h0Z"/>
      <path className="fill=[#00053f]" d="M74.02,288.92c-.23.23-.46.45-.69.67.16-.3.39-.52.69-.67Z"/>
      <path className="fill=[#00053f]" d="M399.83,756.57c.29-.3.77-.8,1.1-1.13-.32.34-.81.84-1.1,1.13h0Z"/>
      <path className="fill=[#00053f]" d="M398.86,757.61c.29-.31.77-.82,1.09-1.17-.32.34-.81.86-1.09,1.17h0Z"/>
      <path className="fill=[#00053f]" d="M397.86,758.61c.24-.24.92-.92,1.14-1.14-.24.24-.88.88-1.14,1.14h0Z"/>
      <path className="fill=[#00053f]" d="M273.77,759.36c.22-.1.43-.21.65-.31-.08.25-.15.5-.23.75-.25-.04-.39-.19-.42-.44Z"/>
      <path className="fill=[#00053f]" d="M396.85,759.6c.24-.24.92-.91,1.15-1.13-.24.23-.88.87-1.15,1.13h0Z"/>
      <path className="fill=[#00053f]" d="M479.21,286.01c-.33-.25-.88-.66-1.25-.94.37.28.92.69,1.25.94h0Z"/>
      <path className="fill=[#00053f]" d="M395.88,760.63c.23-.24.9-.94,1.11-1.17-.23.24-.86.9-1.11,1.17h0Z"/>
      <path className="fill=[#00053f]" d="M394.9,761.66c.23-.25.9-.95,1.12-1.18-.23.24-.86.91-1.12,1.18h0Z"/>
      <path className="fill=[#00053f]" d="M276.48,761.49c.25.23.96.88,1.2,1.09-.25-.23-.92-.84-1.2-1.09h0Z"/>
      <path className="fill=[#00053f]" d="M393.92,762.68c.24-.24.92-.95,1.14-1.17-.24.24-.87.9-1.14,1.17h0Z"/>
      <path className="fill=[#00053f]" d="M277.53,762.43c.24.24.95.92,1.18,1.15-.24-.24-.9-.88-1.18-1.15h0Z"/>
      <path className="fill=[#00053f]" d="M392.92,763.68c.24-.24.93-.93,1.16-1.16-.24.24-.89.89-1.16,1.16h0Z"/>
      <path className="fill=[#00053f]" d="M391.89,764.65c.25-.23.95-.91,1.18-1.13-.24.23-.91.87-1.18,1.13h0Z"/>
      <path className="fill=[#00053f]" d="M467.14,276.53c-.32-.21-.64-.43-.96-.64.32.21.64.43.96.64Z"/>
      <path className="fill=[#00053f]" d="M390.85,765.59c.25-.23.96-.88,1.19-1.09-.25.23-.92.84-1.19,1.09h0Z"/>
      <path className="fill=[#00053f]" d="M389.83,766.57c.3-.29.81-.78,1.15-1.11-.34.33-.84.82-1.15,1.11h0Z"/>
      <path className="fill=[#00053f]" d="M463.15,273.55c-.36-.2-.71-.41-1.07-.61.36.2.71.41,1.07.61Z"/>
      <path className="fill=[#00053f]" d="M388.73,767.66c.01-.44.03-.87.04-1.31,0,.4,0,.8,0,1.2l-.03.11Z"/>
      <path className="fill=[#00053f]" d="M388.73,767.53c.04-.22-.08-.98.07-1.15.1-.09.38,0,.57,0,.17.03.51,0,.52.09-.13.28-.89.83-1.11,1.07h-.05Z"/>
      <path className="fill=[#00053f]" d="M283.41,768.22c.2.19.39.38.59.57-.25-.14-.44-.33-.59-.57Z"/>
      <path className="fill=[#00053f]" d="M387.53,768.77c.2-.18.4-.35.6-.53-.14.24-.34.42-.6.53Z"/>
      <path className="fill=[#00053f]" d="M284.37,769.16c.21.21.42.42.63.64-.28-.15-.48-.36-.63-.64Z"/>
      <path className="fill=[#00053f]" d="M386.1,769.77c.38-.24.75-.48,1.13-.72-.38.24-.75.48-1.13.72Z"/>
      <path className="fill=[#00053f]" d="M285.38,770.18c.2.2.41.4.61.61-.26-.14-.47-.35-.61-.61Z"/>
      <path className="fill=[#00053f]" d="M462.19,273.05c-.34-.24-.91-.64-1.29-.91.38.27.95.67,1.29.91h0Z"/>
      <path className="fill=[#00053f]" d="M286.38,771.18c.21.2.41.41.62.61-.27-.14-.47-.35-.62-.61Z"/>
      <path className="fill=[#00053f]" d="M287.39,772.18c.19.2.39.39.58.59-.25-.15-.44-.34-.58-.59Z"/>
      <path className="fill=[#00053f]" d="M523.5,268.34c-.11-.23-.24-.45-.31-.7-.02-.06.21-.18.32-.27,0,.32,0,.64-.01.96Z"/>
      <path className="fill=[#00053f]" d="M288.42,773.24c.21-.04.42-.09.64-.13-.05.21-.1.42-.15.62-.18-.15-.34-.31-.48-.49Z"/>
      <path className="fill=[#00053f]" d="M118.59,256.06c-.27.13-.54.26-.81.39.21-.24.48-.37.81-.39Z"/>
      <path className="fill=[#00053f]" d="M290.58,775.41c.22.25.86.96,1.07,1.19-.22-.25-.82-.92-1.07-1.19h0Z"/>
      <path className="fill=[#00053f]" d="M268.74,217.37c.03-.18-.07-.65.06-.87.17-.18.61-.23.89-.28-.08.25-.74.91-.91,1.16h-.04Z"/>
      <path className="fill=[#00053f]" d="M291.5,776.43c.33.4.83.99,1.19,1.42-.27-.32-.91-1.08-1.19-1.42h0Z"/>
      <path className="fill=[#00053f]" d="M271.98,591.76c27.44-.05,55.35-.4,82.92-.59.79.02,1.57.04,2.25-.1,1.18-.23,2.17-1,2.73-1.24.12-.03.37-.21.4-.03-.67,2.38-3.76,3.88-6.69,3.79-25.36.18-50.77.19-76.15.06-1.51.03-5.51-.56-5.5-1.86l.03-.04Z"/>
      <path className="fill=[#00053f]" d="M354.74,570.6c-3.06-10.36-5.19-21.41-7.86-31.96-2.24-10.21-5.16-20.53-6.19-30.96.14-3.37,1.14-.81,1.41.82,4.05,18.72,8.34,37.42,12.23,56.16.25,1.75.82,4.57.44,5.94h-.02Z"/>
      <path className="fill=[#00053f]" d="M365.68,473.29c-.4-.35-.2-1.91-.1-2.67,1.62-12.23-.42-24.05-6.43-35.03-.67-1.49-.03-1.37,1-.46,7.83,7.56,6.89,23.64,6.85,33.91-.04,1.18-.2,4-1.27,4.28l-.04-.03Z"/>
      <path className="fill=[#00053f]" d="M337.71,415.29c-.39.28-1.7-.28-2.35-.51-10.1-3.93-20.57-5.34-31.21-3.35-1.6.2-1.48-.4-.16-1.07,6.16-3.14,29.86-.98,33.75,4.89l-.03.04Z"/>
      <path className="fill=[#00053f]" d="M286.83,503.96c.53-.33,1.58.38,2.22,1.54,1.16,2.21.42,5.02-.04,7.38-1.82,8.05-3.27,16.14-4.9,24.17-.27,1.2-.46,1.49-.34.1.97-8.27,3.12-16.51,3.33-24.83.03-2.27-.52-4.62-.73-6.88-.03-.7.1-1.22.39-1.43l.08-.05Z"/>
      <path className="fill=[#00053f]" d="M271.69,433.3c.15.34-.61,1.57-.89,2.14-5.77,10.48-7.8,21.9-7.22,33.67.07,1.57.02,1.2-.13-.1-1.14-7.31-1.35-14.68.57-21.91,1.2-4.99,3.35-10.81,7.64-13.82l.03.02Z"/>
      <path className="fill=[#00053f]" d="M271.3,591.88c-.74.77-.47-1.64-.38-2.21,2.26-9.74,4.96-19.43,7.43-29.11.71-2.58,1.67-3.47.96,0-2.73,10.32-4.81,21.08-7.95,31.26l-.05.07Z"/>
      <path className="fill=[#00053f]" d="M456.43,324.76c-.29.36-1.37.38-1.98.33-6.13-.5-12.35-1.08-18.52-1.48-1.47-.4-6.04,1.03-6.23-.79.12-.85,1.76-1.22,2.71-1.12,6.87.5,13.82,1.07,20.7,1.66.95.12,3.29.36,3.36,1.34l-.03.05Z"/>
      <path className="fill=[#00053f]" d="M354.58,569.62c-.16-2.31.45-.56.63.36,1.41,5.87,2.84,11.8,4.25,17.68.12.55.26,1.39.12,1.78-.08.17-.23.07-.42-.27-.24-.44-.48-1.19-.61-1.76-1.27-5.87-2.92-11.7-3.94-17.6l-.02-.19Z"/>
      <path className="fill=[#00053f]" d="M301.73,412.13c-4.28,2.34-9.24,3.98-13.71,6.04-.35.11-.94.43-1.12.19,2.05-3.66,11.31-7.67,14.84-6.28v.05Z"/>
      <path className="fill=[#00053f]" d="M474.74,344.27c2.01-4.95,2.64-9.99,1.26-15.21-.12-.7.04-.87.47-.32,2.85,3.93,2.19,11.96-1.7,15.55l-.02-.03Z"/>
      <path className="fill=[#00053f]" d="M465.38,347.07c3.33,1.68,6.6-.06,9.03-2.57.47-.43.19-.13-.06.16-.99,1.09-2.04,2.37-3.16,3.35-.9.76-1.73,1.45-2.58,1.11-1.08-.44-2.36-1.39-3.25-2.04h.02Z"/>
      <path className="fill=[#00053f]" d="M283.79,536.46c.15.58-.05,1.55-.16,2.21-.86,3.57-1.81,7.27-2.73,10.81.94-4.27,1.78-8.78,2.87-13.01h.02Z"/>
      <path className="fill=[#00053f]" d="M475.79,328.29c-1.33.13-3.46-.7-4.93-.9-1.56-.35-3.14-.64-4.68-1.04-.2-.07-.31-.14-.3-.22.62-.58,1.99-.64,2.86-.81,2.6-.32,5.6.48,7.08,2.9l-.02.07Z"/>
      <path className="fill=[#00053f]" d="M263.84,470.19c1.04,3.26,2.17,6.77,3.22,10.04-1.05-3.28-2.16-6.75-3.22-10.04h0Z"/>
      <path className="fill=[#00053f]" d="M464.78,326.11c-1.7-.25-4.19-.62-5.95-.88,1.66.25,4.19.62,5.95.88h0Z"/>
      <path className="fill=[#00053f]" d="M341.47,417.85c-1.12-.66-2.74-1.61-3.9-2.28,1,.59,2.84,1.67,3.9,2.28h0Z"/>
      <path className="fill=[#00053f]" d="M280.75,550.33c-.27,1.28-.6,2.82-.88,4.13.26-1.24.62-2.9.88-4.13h0Z"/>
      <path className="fill=[#00053f]" d="M349.32,499.91c.57-.57,1.43-1.43,1.97-1.97-.63.63-1.35,1.35-1.97,1.97h0Z"/>
      <path className="fill=[#00053f]" d="M454.9,340.05c.85.59,2.24,1.57,3.06,2.14-.82-.58-2.21-1.55-3.06-2.14h0Z"/>
      <path className="fill=[#00053f]" d="M436.83,328.15c.87.57,2.28,1.49,3.13,2.04-.84-.55-2.26-1.47-3.13-2.04h0Z"/>
      <path className="fill=[#00053f]" d="M287.04,418.51c-.84.6-2.22,1.58-3.04,2.16.82-.58,2.19-1.56,3.04-2.16h0Z"/>
      <path className="fill=[#00053f]" d="M439.86,330.11c.87.56,2.3,1.48,3.14,2.03-.84-.55-2.27-1.46-3.14-2.03h0Z"/>
      <path className="fill=[#00053f]" d="M450.8,337.26c.68.39,1.72.98,2.37,1.35-.66-.37-1.69-.96-2.37-1.35h0Z"/>
      <path className="fill=[#00053f]" d="M274.09,430.48c-.6.84-1.58,2.22-2.16,3.04.58-.82,1.56-2.19,2.16-3.04h0Z"/>
      <path className="fill=[#00053f]" d="M457.86,342.1c.86.58,2.26,1.54,3.09,2.11-.83-.57-2.23-1.52-3.09-2.11h0Z"/>
      <path className="fill=[#00053f]" d="M279.49,558.42c-.16.11-.55.09-.65-.07-.12-.16.04-.53.14-.87.3-.9.64-2.09.95-2.93.07-.14.05.14.01.52-.14,1.02-.13,2.33-.37,3.26l-.09.09Z"/>
      <path className="fill=[#00053f]" d="M358.68,434.57c-.6-.86-1.58-2.27-2.16-3.1.58.83,1.56,2.24,2.16,3.1h0Z"/>
      <path className="fill=[#00053f]" d="M445.91,334.04c.86.57,2.28,1.51,3.12,2.07-.84-.56-2.25-1.5-3.12-2.07h0Z"/>
      <path className="fill=[#00053f]" d="M442.91,332.05c.86.58,2.27,1.52,3.1,2.08-.83-.56-2.24-1.5-3.1-2.08h0Z"/>
      <path className="fill=[#00053f]" d="M350.57,424.74c-.66-.57-1.62-1.39-2.24-1.93.72.62,1.53,1.32,2.24,1.93h0Z"/>
      <path className="fill=[#00053f]" d="M354.29,428.88c-.54-.67-1.33-1.64-1.85-2.28.53.65,1.31,1.61,1.85,2.28h0Z"/>
      <path className="fill=[#00053f]" d="M352.29,496.87c.4-.42.99-1.05,1.42-1.51-.34.36-1.06,1.12-1.42,1.51h0Z"/>
      <path className="fill=[#00053f]" d="M347.34,501.54c.56-.46,1.46-1.2,1.99-1.63-.62.51-1.4,1.15-1.99,1.63h0Z"/>
      <path className="fill=[#00053f]" d="M360.04,591.11c-.07-.46-.19-1.21-.27-1.73.06.36.21,1.33.27,1.73h0Z"/>
      <path className="fill=[#00053f]" d="M429.82,324.18c.55.28,1.57.79,2.1,1.06-.53-.27-1.55-.78-2.1-1.06h0Z"/>
      <path className="fill=[#00053f]" d="M433.36,325.78c.48.36,1.19.88,1.72,1.27-.41-.31-1.28-.95-1.72-1.27h0Z"/>
      <path className="fill=[#00053f]" d="M434.97,326.94c.51.34,1.46.97,1.95,1.29-.49-.32-1.45-.96-1.95-1.29h0Z"/>
      <path className="fill=[#00053f]" d="M448.93,336.01c.5.33,1.44.96,1.93,1.29-.48-.32-1.43-.95-1.93-1.29h0Z"/>
      <path className="fill=[#00053f]" d="M453.45,338.8c.44.38,1.08.94,1.56,1.35-.38-.33-1.16-1.01-1.56-1.35h0Z"/>
      <path className="fill=[#00053f]" d="M282.97,421.48c-.19.18-.55.51-.81.75-.15.17-.28.24-.37.09l-.16-.35c-.23-.52.2-.35.61-.43.23-.02.57-.06.71-.08l.02.03Z"/>
      <path className="fill=[#00053f]" d="M462.14,344.82c.47.36,1.36,1.03,1.81,1.38-.46-.35-1.34-1.02-1.81-1.38h0Z"/>
      <path className="fill=[#00053f]" d="M275.83,428.47c-.24.27-.6.69-.86.99-.17.2-.08-.2-.06-.45.03-.27.06-.53.09-.8.04-.34.6.13.81.19v.07Z"/>
      <path className="fill=[#00053f]" d="M355.76,430.5c-.39-.43-1.12-1.25-1.5-1.67.38.42,1.11,1.23,1.5,1.67h0Z"/>
      <path className="fill=[#00053f]" d="M345.52,503.19c.4-.36.99-.9,1.42-1.3-.32.29-1.08.99-1.42,1.3h0Z"/>
      <path className="fill=[#00053f]" d="M284.43,502.82c.43.39,1.06.96,1.53,1.38-.37-.33-1.14-1.03-1.53-1.38h0Z"/>
      <path className="fill=[#00053f]" d="M342.61,505.28c.47-.35,1.36-1.02,1.82-1.36-.46.34-1.34,1.01-1.82,1.36h0Z"/>
      <path className="fill=[#00053f]" d="M348.28,422.79c-.27-.03-.44-.17-.5-.44.21-.11.42-.22.64-.33-.05.26-.09.51-.14.77Z"/>
      <path className="fill=[#00053f]" d="M351.58,425.73c-.24-.23-.92-.91-1.15-1.13.24.23.88.87,1.15,1.13h0Z"/>
      <path className="fill=[#00053f]" d="M352.58,426.73c-.24-.24-.92-.91-1.14-1.14.24.24.88.87,1.14,1.14h0Z"/>
      <path className="fill=[#00053f]" d="M274.97,429.4c-.27.32-.71.86-1.01,1.22.3-.36.75-.9,1.01-1.22h0Z"/>
      <path className="fill=[#00053f]" d="M460.85,344.13c.35.21.94.56,1.34.79-.4-.24-.99-.59-1.34-.79h0Z"/>
      <path className="fill=[#00053f]" d="M463.86,346.13c.25.11,1.09.49,1.31.58-.22-.1-1.06-.47-1.31-.58h0Z"/>
      <path className="fill=[#00053f]" d="M351.31,497.95c.19-.2.8-.86.96-1.04-.16.17-.78.83-.96,1.04h0Z"/>
      <path className="fill=[#00053f]" d="M282.73,502.25c.27.07,1.16.3,1.4.36-.23-.06-1.12-.29-1.4-.36h0Z"/>
      <path className="fill=[#00053f]" d="M344.35,504.01c.33-.24.88-.64,1.25-.91-.37.27-.92.67-1.25.91h0Z"/>
      <path className="fill=[#00053f]" d="M341.36,505.98c.35-.2.94-.54,1.33-.76-.39.23-.98.56-1.33.76h0Z"/>
      <path className="fill=[#00053f]" d="M342.75,418.55c-.36-.21-.96-.57-1.37-.81.4.24,1.01.6,1.37.81h0Z"/>
      <path className="fill=[#00053f]" d="M431.82,325.17c.26.1,1.1.43,1.33.52-.22-.09-1.07-.42-1.33-.52h0Z"/>
      <path className="fill=[#00053f]" d="M284.12,420.54c-.32.26-.87.7-1.23,1,.36-.29.91-.74,1.23-1h0Z"/>
      <path className="fill=[#00053f]" d="M463.87,246.64c-.42-17.92-.26-36.23-.14-54.21.23-1.75.7-1.57.9.16.26,15.67.05,31.39.08,47.07-.06,2.07-.04,5.29-.82,6.97h-.02Z"/>
      <path className="fill=[#00053f]" d="M367.79,780.37c-.08.14-.16.29-.23.43.07-.15.14-.3.21-.46,0,0,.03.03.03.03Z"/>
      <path className="fill=[#00053f]" d="M113.79,672.38c0-.56,0-1.38,0-1.99,0,.45,0,1.51,0,1.99h0Z"/>
    </g>
  </g>
</svg>